<?xml version="1.0" encoding="utf-8"?>
<!-- Generator: Adobe Illustrator 25.2.1, SVG Export Plug-In . SVG Version: 6.00 Build 0)  -->
<svg version="1.1"
	 id="svg2176" inkscape:export-xdpi="92.389999" inkscape:export-ydpi="92.389999" inkscape:version="0.92.4 (unknown)" sodipodi:docname="bytz-HighContrast-scalable.svg" xmlns:cc="http://creativecommons.org/ns#" xmlns:dc="http://purl.org/dc/elements/1.1/" xmlns:inkscape="http://www.inkscape.org/namespaces/inkscape" xmlns:rdf="http://www.w3.org/1999/02/22-rdf-syntax-ns#" xmlns:sodipodi="http://sodipodi.sourceforge.net/DTD/sodipodi-0.dtd" xmlns:svg="http://www.w3.org/2000/svg"
	 xmlns="http://www.w3.org/2000/svg" xmlns:xlink="http://www.w3.org/1999/xlink" x="0px" y="0px" viewBox="0 0 266 266"
	 style="enable-background:new 0 0 266 266;" xml:space="preserve">
<style type="text/css">
	.st0{stroke:#FFFFFF;stroke-width:9.998;stroke-miterlimit:15.1181;}
	.st1{fill:#FF005B;}
	.st2{fill:#750F33;}
	.st3{fill:#FFFFFF;}
	.st4{display:none;}
	.st5{display:inline;fill:#FFFFFF;}
</style>
<sodipodi:namedview  bordercolor="#666666" borderopacity="1.0" id="base" inkscape:current-layer="layer1" inkscape:cx="121.18379" inkscape:cy="143.93631" inkscape:document-units="mm" inkscape:pagecheckerboard="true" inkscape:pageopacity="0.0" inkscape:pageshadow="2" inkscape:window-height="1088" inkscape:window-maximized="1" inkscape:window-width="2048" inkscape:window-x="0" inkscape:window-y="27" inkscape:zoom="3.2460671" pagecolor="#ffffff" showgrid="false" units="px">
	</sodipodi:namedview>
<g id="layer1" transform="translate(0,-226.62082)" inkscape:groupmode="layer" inkscape:label="Layer 1">
	<path id="path1484" inkscape:connector-curvature="0" class="st0" d="M35.6,231.6c0,0-30.6,0-30.6,30.6V457c0,0,0,30.6,30.6,30.6
		h194.7c0,0,30.6,0,30.6-30.6V262.3c0,0,0-30.6-30.6-30.6H35.6z"/>
	<g>
		<path d="M112,260.9c19.4-3,40-2.5,58.1,5.7c30.5,12.4,54.1,41,60.6,73.2c3.2,20.1,2.2,41.5-6.5,60.1
			c-12.9,29.5-40.7,52.4-72.5,58.6c-20.1,3.2-41.5,2.2-60.1-6.5c-29.5-12.9-52.4-40.7-58.6-72.5c-3.5-20.1-2.2-41.7,6.7-60.3
			C52.7,289.7,80.5,267.4,112,260.9z"/>
	</g>
	<g>
		<g>
			<path class="st1" d="M208.8,330.4c-7.2-17.4-20.1-32-36.2-41.5c-15.9-9.2-34.5-13.2-52.9-10.9c-17.4,2-34,9.4-46.9,20.8
				s-22.3,26.8-26.6,43.4c-3.2,12.9-3.2,26.6-0.5,39.5c3.5,15.9,11.7,30.5,23.3,41.9c11.9,11.9,27.6,20.1,43.9,23.3
				c14.9,3,30.8,1.7,45.2-3.5c16.9-6,31.8-17.4,41.7-32.3c7.2-10.4,11.9-22.1,13.9-34.5C216.7,361.2,215,345.1,208.8,330.4z
				 M203.1,388.5c-4.2,11.7-10.9,22.3-19.9,30.8c-9.7,9.4-22.1,16.1-35.2,19.4c-11.7,2.5-23.8,2.5-35.5,0.2
				c-8.4-2-16.4-5.5-23.8-9.9C76,421,65.6,409.3,59.1,395.7c-3.5-7.2-5.7-14.6-6.5-22.3c-1.5-12.2-0.5-25.3,4-36.7
				c3.7-9.7,9.2-19.1,16.4-26.6c10.2-10.9,23.3-18.4,37.7-22.3c11.9-2.7,24.6-2.7,36.5-0.2c7.9,2,15.6,5.2,22.8,9.4
				c12.9,7.9,23.6,19.6,29.8,33.5c3.2,6.9,5.7,14.1,6.5,21.8C208,364.2,207.3,377.3,203.1,388.5z"/>
			<path class="st2" d="M211,328.2c-7.2-17.4-20.1-32-36.2-41.5c-15.9-9.2-34.5-13.2-52.9-10.9c-17.4,2-34,9.4-46.9,20.8
				c-12.9,11.4-22.3,26.8-26.6,43.4c-3.2,12.9-3.2,26.6-0.5,39.5c3.5,15.9,11.7,30.5,23.3,41.9c11.9,11.9,27.6,20.1,43.9,23.3
				c14.9,3,30.8,1.7,45.2-3.5c16.9-6,31.8-17.4,41.7-32.3c7.2-10.4,11.9-22.1,13.9-34.5C219,359.2,217.2,342.8,211,328.2z
				 M205.3,386.5c-4.2,11.7-10.9,22.3-19.9,30.8c-9.7,9.4-22.1,16.1-35.2,19.4c-11.7,2.5-23.8,2.5-35.5,0.2
				c-8.4-2-16.4-5.5-23.8-9.9c-12.7-7.9-23.1-19.6-29.5-33.3c-3.5-7.2-5.7-14.6-6.5-22.3c-1.5-12.2-0.5-25.3,4-36.7
				c3.7-9.7,9.2-19.1,16.4-26.6c10.2-10.9,23.3-18.4,37.7-22.3c11.9-2.7,24.6-2.7,36.5-0.2c7.9,2,15.6,5.2,22.8,9.4
				c12.9,7.9,23.6,19.6,29.8,33.5c3.2,6.9,5.7,14.1,6.5,21.8C210,362.2,209.5,375.1,205.3,386.5z"/>
			<path class="st3" d="M213.3,326.2c-7.2-17.4-20.1-32-36.2-41.5c-15.9-9.2-34.5-13.2-52.9-10.9c-17.4,2-34,9.4-46.9,20.8
				c-12.9,11.4-22.3,26.8-26.6,43.4c-3.2,12.9-3.2,26.6-0.5,39.5c3.5,15.9,11.7,30.5,23.3,41.9c11.9,11.9,27.6,20.1,43.9,23.3
				c14.9,3,30.8,1.7,45.2-3.5c16.9-6,31.8-17.4,41.7-32.3c7.2-10.4,11.9-22.1,13.9-34.5C221,357,219.2,340.8,213.3,326.2z
				 M207.3,384.3c-4.2,11.7-10.9,22.3-19.9,30.8c-9.7,9.4-22.1,16.1-35.2,19.4c-11.7,2.5-23.8,2.5-35.5,0.2
				c-8.4-2-16.4-5.5-23.8-9.9c-12.7-7.9-23.1-19.6-29.5-33.3c-3.5-7.2-5.7-14.6-6.5-22.3c-1.5-12.2-0.5-25.3,4-36.7
				c3.7-9.7,9.2-19.1,16.4-26.6c10.2-10.9,23.3-18.4,37.7-22.3c11.9-2.7,24.6-2.7,36.5-0.2c7.9,2,15.6,5.2,22.8,9.4
				c12.9,7.9,23.6,19.6,29.8,33.5c3.2,6.9,5.7,14.1,6.5,21.8C212.3,360,211.5,372.9,207.3,384.3z"/>
			<polygon class="st1" points="127.1,341.1 138.1,341.1 138.1,352.3 143.8,352.3 143.8,336.4 119.7,336.4 119.7,340.6 119.7,341.1 
							"/>
			<polygon class="st1" points="121.9,371.9 150.5,371.9 150.5,387.3 138.3,387.3 138.3,374.8 120.4,374.8 			"/>
			<polygon class="st1" points="90.9,321 87.4,324.7 87.4,408.1 164.6,408.1 166.8,405.6 168.3,403.6 170.6,400.9 175,396.9 
				175,390.5 114,390.5 114,361.4 168.6,361.4 168.6,357.7 170.6,357.7 171.6,357.7 172.3,357.7 175.5,354.5 175,349.5 149.2,350.8 
				149,355 114.2,355 			"/>
			<path class="st2" d="M120.9,338.1h20.6v14.4c0,0,6.9,0.7,6.9,0c0-0.7,0-20.1,0-20.1h-27.3v5.7H120.9z"/>
			<polygon class="st2" points="121.9,371.9 141.5,371.9 141.5,385.5 146.5,385.5 146.5,366.7 120.9,366.7 120.9,371.9 			"/>
			<polygon class="st2" points="94.9,317 90.9,321 90.9,405.4 167.1,405.4 170.6,401.2 170.6,396.7 175.3,396.7 179,392.5 
				98.3,392.5 98.3,360.9 169.3,360.9 169.3,355 175.3,355 179.3,350.5 170.1,350.5 151.7,350.8 151.7,356.2 113.2,356.2 
				113.2,328.9 			"/>
			<path class="st3" d="M179.3,350.8c0-8.4,0-16.6,0-25.1c-2.7,0-5.7,0-8.4,0c0-3,0-6,0-8.7c-25.3,0-50.6,0-76,0c0,28,0,56.1,0,84.4
				c25.3,0,50.6,0,76,0c0-3,0-5.7,0-8.7c2.7,0,5.7,0,8.4,0c0-8.4,0-16.6,0-25.1c-2.7,0-5.7,0-8.4,0c0-5.7,0-11.2,0-16.9
				C173.5,350.8,176.3,350.8,179.3,350.8z M145.5,384.5c-5.7,0-11.2,0-16.9,0c0-3.5,0-7.2,0-10.9c-1.7,0-3.7,0-5.5,0c0-2,0-4,0-6
				c7.4,0,14.9,0,22.3,0C145.5,373.4,145.5,378.8,145.5,384.5z M145.5,350.8c-5.7,0-11.2,0-16.9,0c0-3.5,0-7.2,0-10.9
				c-1.7,0-3.7,0-5.5,0c0-2,0-4,0-6c7.4,0,14.9,0,22.3,0C145.5,339.6,145.5,345.1,145.5,350.8z"/>
		</g>
	</g>
	<g id="g876" class="st4">
		<path id="path1496" inkscape:connector-curvature="0" class="st5" d="M153.6,304.3H104l-4.1,23l44.8,0.1c22,0,28.6,8,28.4,21.3
			c-0.1,6.8-3,18.3-4.3,22c-3.4,9.9-10.4,21.3-36.5,21.2l-43.5,0l-4.1,23H134c17.5,0,24.9-2,32.8-5.7c17.4-8.1,27.8-25.3,32-47.7
			C204.9,328.1,197.2,304.3,153.6,304.3"/>
		<path id="path1504" inkscape:connector-curvature="0" class="st5" d="M82.5,348.1c-13,0-14.9,8.5-16.1,13.6
			c-1.6,6.7-2.1,9.4-2.1,9.4h50.8c13,0,14.9-8.5,16.1-13.6c1.6-6.7,2.1-9.4,2.1-9.4H82.5z"/>
	</g>
</g>
</svg>
