/* XPM */
static char *result[] = {
/* columns rows colors chars-per-pixel */
"32 32 207 2 ",
"   c black",
".  c #010000",
"X  c #010101",
"o  c #020001",
"O  c #030001",
"+  c #040001",
"@  c #050002",
"#  c #060002",
"$  c gray2",
"%  c #080003",
"&  c #0C0004",
"*  c #0E0E0E",
"=  c #100006",
"-  c #1C000A",
";  c #1E000B",
":  c #1F000B",
">  c #1F010C",
",  c #191919",
"<  c #1D1D1D",
"1  c #21030E",
"2  c #330012",
"3  c #3C0418",
"4  c gray13",
"5  c #222222",
"6  c gray15",
"7  c #2F2D2E",
"8  c #362329",
"9  c #34282C",
"0  c #3D2E33",
"q  c #343434",
"w  c gray21",
"e  c #393133",
"r  c #383737",
"t  c #3A3A3A",
"y  c gray24",
"u  c #49001A",
"i  c #49051E",
"p  c #51001D",
"a  c #54011F",
"s  c #5C0121",
"d  c #510E26",
"f  c #5B0E2A",
"g  c #431425",
"h  c #4F192C",
"j  c #650225",
"k  c #680126",
"l  c #6C0127",
"z  c #6C0228",
"x  c #710229",
"c  c #74032B",
"v  c #74052D",
"b  c #7A022D",
"n  c #7B022D",
"m  c #62102C",
"M  c #721939",
"N  c #47212E",
"B  c #753049",
"V  c #7B3F54",
"C  c #414141",
"Z  c #454445",
"A  c #494849",
"S  c #4B494A",
"D  c #4C4849",
"F  c #514248",
"G  c #525050",
"H  c #67414E",
"J  c #784557",
"K  c #6B6667",
"L  c #747474",
"P  c #797375",
"I  c #880232",
"U  c #890232",
"Y  c #8E0234",
"T  c #880534",
"R  c #8E0536",
"E  c #940236",
"W  c #97073A",
"Q  c #A60840",
"!  c #B00240",
"~  c #B20844",
"^  c #AE1249",
"/  c #AF174E",
"(  c #B0174D",
")  c #B0174E",
"_  c #B61B52",
"`  c #822144",
"'  c #8D3453",
"]  c #9C3056",
"[  c #B72E5F",
"{  c #A63F64",
"}  c #B83563",
"|  c #B93665",
" . c #B83765",
".. c #B33864",
"X. c #B13C66",
"o. c #BA3E6B",
"O. c #C30448",
"+. c #9C4F6A",
"@. c #BE4E76",
"#. c #8A747C",
"$. c #A6617A",
"%. c #A7627A",
"&. c #A26A7D",
"*. c #9F7080",
"=. c #B76280",
"-. c #B86381",
";. c #BF6283",
":. c #B76A86",
">. c #AB7185",
",. c #BA768E",
"<. c #C16D8B",
"1. c #C46D8C",
"2. c #C66F8E",
"3. c #C57B95",
"4. c gray51",
"5. c #848484",
"6. c #8E8789",
"7. c #958189",
"8. c #A1848E",
"9. c #B48596",
"0. c #BC8599",
"q. c #A9989E",
"w. c #AB989F",
"e. c gray65",
"r. c #A9A1A4",
"t. c #AEA2A7",
"y. c #B7A7AD",
"u. c #BBAFB3",
"i. c gray69",
"p. c #BBB1B5",
"a. c #C4869C",
"s. c #C8839B",
"d. c #CB859E",
"f. c #CC859E",
"g. c #C0899C",
"h. c #C38A9F",
"j. c #C38DA0",
"k. c #CA88A0",
"l. c #CC8CA3",
"z. c #C196A5",
"x. c #C595A6",
"c. c #CF94A9",
"v. c #CF95A9",
"b. c #CF97AB",
"n. c #C7A7B3",
"m. c #CDA8B5",
"M. c #C8AFB8",
"N. c #D4A1B3",
"B. c #DEA1B7",
"V. c #D5AFBC",
"C. c #C1B1B6",
"Z. c #C0B2B7",
"A. c #D5B3BF",
"S. c #D6B3BF",
"D. c #CFB8C0",
"F. c #D8BBC5",
"G. c #D9BDC7",
"H. c #D9BEC8",
"J. c #DCBEC8",
"K. c #DCC1CA",
"L. c #DBC4CC",
"P. c #D1C8CB",
"I. c #DACAD0",
"U. c #D0D0D0",
"Y. c #D6D0D2",
"T. c #D8D1D4",
"R. c #E3C2CE",
"E. c #E2C3CE",
"W. c #E6D3D9",
"Q. c #E5D8DD",
"!. c #E5D9DD",
"~. c #E7D8DE",
"^. c #E6DADF",
"/. c #EAD9DF",
"(. c #EDE1E5",
"). c #EEE0E5",
"_. c #ECE3E6",
"`. c #EEE2E6",
"'. c #EDE6E8",
"]. c gray91",
"[. c #EDEBEC",
"{. c #F1E4E9",
"}. c #F1E5EA",
"|. c #F0EBED",
" X c #F4E9ED",
".X c #F2EDEF",
"XX c #F5EDF0",
"oX c #F5EEF0",
"OX c #F5EEF1",
"+X c #F6EEF1",
"@X c #F6EFF2",
"#X c #F3F1F2",
"$X c #F7F0F2",
"%X c #F6F1F3",
"&X c #F7F1F3",
"*X c #F7F3F4",
"=X c #FAF0F4",
"-X c #FAF1F4",
";X c #F8F2F4",
":X c #F8F3F5",
">X c #F8F4F6",
",X c #F9F5F7",
"<X c #FAF6F8",
"1X c #FBF7F9",
"2X c #FCFAFB",
"3X c white",
"4X c None",
/* pixels */
"4X4X4X4X                                                4X4X4X4X",
"4X4X                                                        4X4X",
"4X                                                            4X",
"4X                                                            4X",
"                            4 q y 5 $                         4X",
"                      F n.&X1X`.`.<X*Xu.A                     4X",
"                  8 J.XXk.] v j c R } h.XXP.6                 4X",
"                J @Xb.d             . u ^ x.>XG               4X",
"              V ;X$..                   O n -.>XZ             4X",
"            g }.&.                          k :.|.,           4X",
"          + v.S.    1 y.i.i.i.i.i.i.i.i.5.    Y A.r.          4X",
"          M 1X9     Q &X3X3X3X3X3X3X3X3X].4.  & [ 2X<         4X",
"          <.H.      ~ &X3X3X!.9.9.I.3X3X3XU.    b K.P         4X",
"        ; V.#.      ~ &X3X3X%X+.! z.3X3X3XU.    : 3.Z.        4X",
"        a W.D       ~ &X3X3X3Xe.>.L.3X3X X8.      @.^.        4X",
"        z `.w       ~ &X3X3X3X3X3X3X3X3XR.>       ..(.        4X",
"        x /.C       ~ =X3X3X#XT.T.[.3X3XU.q       X.~.        4X",
"        s F.K       ~ =X3X3XQ.' T c.3X3X3XU.      ;.D.        4X",
"        2 a.t.      ~ =X3X3X3XL ` B.3X3X3XU.    % N.7.        4X",
"        o | >X*     ~ -X3X3X3X3X3X3X3X3X3XY.    f ;X7         4X",
"          U K.6.    ~ &X3X3X3X3X3X3X3X3XE.3     s.G.          4X",
"          -  .,Xr   O.( ) ) ) ) ) ) ) / m     B :X0           4X",
"            l ,.'.6                         N {.*.            4X",
"              E g..XS                     H  X0.              4X",
"              o I =.oXp.t X           e m.$X%.                4X",
"                  u _ j.OX_.C.q.w.M.).+Xl.h                   4X",
"                    o p W o.2.d.f.1.{ i                       4X",
"                            # = @                             4X",
"4X                                                            4X",
"4X                                                            4X",
"4X4X                                                        4X4X",
"4X4X4X4X4X4X4X4X4X4X4X4X4X4X4X4X4X4X4X4X4X4X4X4X4X4X4X4X4X4X4X4X"
};
