/* XPM */
static char *result[] = {
/* columns rows colors chars-per-pixel */
"16 16 99 2 ",
"   c black",
".  c #010000",
"X  c #020000",
"o  c #020202",
"O  c #0C0206",
"+  c #0C0508",
"@  c #10070B",
"#  c #14050A",
"$  c #1B0108",
"%  c #1F000B",
"&  c #160D10",
"*  c #180B10",
"=  c #1C0A10",
"-  c #190D12",
";  c #1E0E14",
":  c #171314",
">  c #151515",
",  c #1A1013",
"<  c #191717",
"1  c #1A1818",
"2  c #1F1B1D",
"3  c #1B1D1D",
"4  c #22000A",
"5  c #230912",
"6  c #21151A",
"7  c #32131E",
"8  c #1E201F",
"9  c #2F2D2D",
"0  c #312329",
"q  c #31272A",
"w  c #362A2E",
"e  c #302D2E",
"r  c #332C2E",
"t  c #322D2E",
"y  c #3E2C32",
"u  c #731637",
"i  c #482732",
"p  c #422B33",
"a  c #654B54",
"s  c #614C54",
"d  c #7F5A67",
"f  c #74656A",
"g  c #7A626A",
"h  c #74686C",
"j  c #933456",
"k  c #943557",
"l  c #98395A",
"z  c #87425B",
"x  c #89455D",
"c  c #815E6B",
"v  c #825F6B",
"b  c #99556D",
"n  c #9C576F",
"m  c #886D76",
"M  c #8B6D77",
"N  c #906473",
"B  c #847177",
"V  c #847278",
"C  c #867279",
"Z  c #8A717A",
"A  c #89737B",
"S  c #8D707A",
"D  c #9A7582",
"F  c #9F7483",
"G  c #A37083",
"H  c #A57684",
"J  c #AD7287",
"K  c #AD7388",
"L  c #A27D8A",
"P  c #B07188",
"I  c #B1738A",
"U  c #B4768B",
"Y  c #BC7790",
"T  c #BF7992",
"R  c #BD7E94",
"E  c #C27590",
"W  c #828987",
"Q  c #888988",
"!  c #888F8D",
"~  c #8B9793",
"^  c #919190",
"/  c #AE8090",
"(  c #A78C96",
")  c #AA8894",
"_  c #C08097",
"`  c #C3859B",
"'  c #C68FA2",
"]  c #CB9FAF",
"[  c #D4A3B4",
"{  c #DBA3B7",
"}  c #DDABBD",
"|  c #BFC8C5",
" . c #CBC4C6",
".. c #DFD0D5",
"X. c #E9D6DD",
"o. c #EED8E0",
"O. c #EFE7E9",
"+. c white",
"@. c None",
/* pixels */
"@.                            @.",
"                                ",
"            < e 9 3             ",
"        + g U F H Y B >         ",
"      O L v 5     4 x ) >       ",
"    . d c 7 Q ! ~ W w z A o     ",
"    - I , k +.o.{ +.| $ T 8     ",
"    q Z   l +.X.[ +.( . D t     ",
"    0 m   l +...] +.^   S r     ",
"    = P : j +.O.} +. .# K 2     ",
"    X b f u R ` ' _ i a M o     ",
"      % E h 1     @ s / &       ",
"        % n J V C G N *         ",
"          X ; p y 6             ",
"                                ",
"@.                          @.@."
};
