/* XPM */
static char *_2f3423c68f34734e9285301d7a7fe32ykyy0xh7tOItpRdU[] = {
/* columns rows colors chars-per-pixel */
"64 64 175 2 ",
"   c None",
".  c #000000",
"X  c #0C0004",
"o  c #0A0A0A",
"O  c #130007",
"+  c #170008",
"@  c #1D000A",
"#  c #110B0D",
"$  c #141313",
"%  c #1B1B1B",
"&  c #25000D",
"*  c #2B000F",
"=  c #2C0010",
"-  c #280A15",
";  c #3F0016",
":  c #26151B",
">  c #351D26",
",  c #202020",
"<  c #2B2B2B",
"1  c #2B2326",
"2  c #373737",
"3  c #3B393A",
"4  c #400017",
"5  c #450019",
"6  c #4C001B",
"7  c #50001D",
"8  c #460E23",
"9  c #5B0021",
"0  c #5C0B27",
"q  c #5E152F",
"w  c #680126",
"e  c #6E0A2E",
"r  c #660024",
"t  c #76022B",
"y  c #7A002C",
"u  c #750B31",
"i  c #661532",
"p  c #45343A",
"a  c #7E1E40",
"s  c #623042",
"d  c #414041",
"f  c #4E4C4D",
"g  c #505050",
"h  c #5B5B5B",
"j  c #774B5B",
"k  c #616161",
"l  c #6C6C6C",
"z  c #6D6468",
"x  c #7F6A71",
"c  c #767676",
"v  c gray47",
"b  c #80002E",
"n  c #890031",
"m  c #860D38",
"M  c #870936",
"N  c #920135",
"B  c #990037",
"V  c #9B0038",
"C  c #A00039",
"Z  c #AB023E",
"A  c #B0003F",
"S  c #841D42",
"D  c #8C1C44",
"F  c #961341",
"G  c #AA0540",
"H  c #AC0D45",
"J  c #B40443",
"K  c #BC0546",
"L  c #B50A47",
"P  c #BF0748",
"I  c #BD0B4A",
"U  c #A6184A",
"Y  c #AF194E",
"T  c #AC174B",
"R  c #B7124D",
"E  c #B51A51",
"W  c #862A4B",
"Q  c #9C234D",
"!  c #9D2C54",
"~  c #9D2650",
"^  c #8A3956",
"/  c #813651",
"(  c #9B385B",
")  c #9D375A",
"_  c #A32451",
"`  c #AF2F5C",
"'  c #B62659",
"]  c #AF3560",
"[  c #BE3767",
"{  c #B73C68",
"}  c #B33C66",
"|  c #C50449",
" . c #CC034B",
".. c #C00446",
"X. c #D1044C",
"o. c #D12361",
"O. c #9D4A68",
"+. c #A84468",
"@. c #B3466D",
"#. c #A2526E",
"$. c #B9587A",
"%. c #936374",
"&. c #8A737C",
"*. c #B5617F",
"=. c #C0426E",
"-. c #BB5F80",
";. c #9B7E88",
":. c #AE6780",
">. c #AE6C83",
",. c #BF6081",
"<. c #B56B85",
"1. c #AE7187",
"2. c #AE788B",
"3. c #B5778D",
"4. c #B57C90",
"5. c #C05C80",
"6. c #C77F99",
"7. c #E2749B",
"8. c #828181",
"9. c #8B8B8B",
"0. c #888183",
"q. c #929192",
"w. c #9E9799",
"e. c #A18F95",
"r. c #B68194",
"t. c #A6949A",
"y. c #B2959F",
"u. c #BF8FA0",
"i. c #BB92A1",
"p. c #AAA9A9",
"a. c #ACA5A8",
"s. c gray69",
"d. c #B8B3B5",
"f. c #BDB8BA",
"g. c #CA819B",
"h. c #C78CA1",
"j. c #D283A0",
"k. c #C397A6",
"l. c #CC9DAD",
"z. c #CD95AA",
"x. c #D19EB0",
"c. c #CCA3B1",
"v. c #D0A4B4",
"b. c #D1AFBB",
"n. c #DAADBD",
"m. c #C2BABD",
"M. c #C8B9BE",
"N. c #D6B7C2",
"B. c #DBB4C2",
"V. c #E7B8C8",
"C. c #E2B0C2",
"Z. c #CDC2C6",
"A. c #CDCBCC",
"S. c #C7C3C5",
"D. c #D4C6CA",
"F. c #DCC3CC",
"G. c #D2CDCF",
"H. c #D8CED1",
"J. c #E1C4CF",
"K. c #E2CED5",
"L. c #E6D4DA",
"P. c #E6D9DE",
"I. c #E4DEE0",
"U. c #ECDCE2",
"Y. c #EAE6E7",
"T. c #EDE6E8",
"R. c #EFECED",
"E. c #E7E4E5",
"W. c #F1E7EA",
"Q. c #F3EAED",
"!. c #F6EEF1",
"~. c #F5F2F3",
"^. c #F9F5F6",
"/. c #FAF7F8",
"(. c #FFFFFF",
/* pixels */
"                                                                                                                                ",
"            . . . . . . . . . . . . . . . . . . . . . . . . . . . . . . . . . . . . . . . . . . . . . . . . . . . .             ",
"        . . . . . . . . . . . . . . . . . . . . . . . . . . . . . . . . . . . . . . . . . . . . . . . . . . . . . . . .         ",
"      . . . . . . . . . . . . . . . . . . . . . . . . . . . . . . . . . . . . . . . . . . . . . . . . . . . . . . . . . .       ",
"    . . . . . . . . . . . . . . . . . . . . . . . . . . . . . . . . . . . . . . . . . . . . . . . . . . . . . . . . . . .       ",
"  . . . . . . . . . . . . . . . . . . . . . . . . . . . . . . . . . . . . . . . . . . . . . . . . . . . . . . . . . . . . .     ",
"  . . . . . . . . . . . . . . . . . . . . . . . . . . . . . . . . . . . . . . . . . . . . . . . . . . . . . . . . . . . . .     ",
"  . . . . . . . . . . . . . . . . . . . . . . . . . . . . . . . . . . . . . . . . . . . . . . . . . . . . . . . . . . . . .     ",
"  . . . . . . . . . . . . . . . . . . . . . . . . . . . . . . . . . . . . . . . . . . . . . . . . . . . . . . . . . . . . . .   ",
"  . . . . . . . . . . . . . . . . . . . . . . . . . . . . . . . . . . . . . . . . . . . . . . . . . . . . . . . . . . . . . .   ",
"  . . . . . . . . . . . . . . . . . . . . . . . . . . . . . . . . . . . . . . . . . . . . . . . . . . . . . . . . . . . . . .   ",
"  . . . . . . . . . . . . . . . . . . . . . . . . . . . . . . . . . . . . . . . . . . . . . . . . . . . . . . . . . . . . . .   ",
"  . . . . . . . . . . . . . . . . . . . . . . . . . . . . . . . . . . . . . . . . . . . . . . . . . . . . . . . . . . . . . .   ",
"  . . . . . . . . . . . . . . . . . . . . . . . . . . $ g 0.a.m.S.m.p.8.f $ . . . . . . . . . . . . . . . . . . . . . . . . .   ",
"  . . . . . . . . . . . . . . . . . . . . . . . o z D.(.(.(.(.(.(.(.(.(.(.(.S.k o . . . . . . . . . . . . . . . . . . . . . .   ",
"  . . . . . . . . . . . . . . . . . . . . . . &.W.(.(.U.h.-.{ ' ' ' +.*.k.U.(.(.Y.l . . . . . . . . . . . . . . . . . . . . .   ",
"  . . . . . . . . . . . . . . . . . . . . p L.(.(.v.] t 5 @ X . O @ 4 t J K +.b.(.(.G.< . . . . . . . . . . . . . . . . . . .   ",
"  . . . . . . . . . . . . . . . . . . . %.(.(.B.! & . . . . . . . . . . . @ n | ) F.(.^.h . . . . . . . . . . . . . . . . . .   ",
"  . . . . . . . . . . . . . . . . . . 4.(./.*.@ . . . . . . . . . . . . . . . O V L 4.(.(.l . . . . . . . . . . . . . . . . .   ",
"  . . . . . . . . . . . . . . . . . 3.(.Q./ . . . . . . . . . . . . . . . . . . . 6 | #.^.(.k . . . . . . . . . . . . . . . .   ",
"  . . . . . . . . . . . . . . . . O.(.^.s . . . . . . . . . . . . . . . . . . . . . *  .O.(./.2 . . . . . . . . . . . . . . .   ",
"  . . . . . . . . . . . . . . . q Q.(.j . . . . . . . . . . . . . . . . . . . . . . . & X.>.(.I.o . . . . . . . . . . . . . .   ",
"  . . . . . . . . . . . . . . + x.(.i.. . . . . d d d d d d d d d d d d d d d d , . . . 4 | b.(.9.. . . . . . . . . . . . . .   ",
"  . . . . . . . . . . . . . . _ (.W.o . . . X 0 (.(.(.(.(.(.(.(.(.(.(.(.(.(.(.(.8.. . . . b _ ~.(.% . . . . . . . . . . . . .   ",
"  . . . . . . . . . . . . . = v.(.x . . . . N m (.(.(.(.(.(.(.(.(.(.(.(.(.(.(.(.s.k % . . X X.k.(.9.. . . . . . . . . . . . .   ",
"  . . . . . . . . . . . . . F /.Q.o . . . . V m (.(.(.(.(.(.(.(.(.(.(.(.(.(.(.(.(.(.g . . . w _ (.R.o . . . . . . . . . . . .   ",
"  . . . . . . . . . . . . O -.(.t.. . . . . C m (.(.(.(.(.(.i.2.2.2.r.(.(.(.(.(.(.(.g . . . X | N.(.d . . . . . . . . . . . .   ",
"  . . . . . . . . . . . . 7 c.(.d . . . . . C m (.(.(.(.(.(.7.o. . .a (.(.(.(.(.(.(.g . . . . N >.(.0.. . . . . . . . . . . .   ",
"  . . . . . . . . . . . . N L.(.o . . . . . C m (.(.(.(.(.(.(.k . J S (.(.(.(.(.(.(.g . . . . 5 ` (.d.. . . . . . . . . . . .   ",
"  . . . . . . . . . . . . G /.P.. . . . . . C m (.(.(.(.(.(.(.k . L u (.(.(.(.(.(.(.g . . . . X I (.P.. . . . . . . . . . . .   ",
"  . . . . . . . . . . . . R (.S.. . . . . . C m (.(.(.(.(.(.(.^.~.~.~.(.(.(.(.(.k.W # . . . . . K Q.~.. . . . . . . . . . . .   ",
"  . . . . . . . . . . . . ' (.m.. . . . . . C m (.(.(.(.(.(.(.(.(.(.(.(.(.(.(.(.g.O . . . . . . J P./.. . . . . . . . . . . .   ",
"  . . . . . . . . . . . O Y (.m.. . . . . . V m (.(.(.(.(.(.(.(.(.(.(.(.(.(.(.(.8.. . . . . . . G P./.. . . . . . . . . . . .   ",
"  . . . . . . . . . . . X R (.G.. . . . . . C m (.(.(.(.(.(.H.Z.Z.Z.D.(.(.(.(.(.p.g % . . . . . Z W.E.. . . . . . . . . . . .   ",
"  . . . . . . . . . . . . P Q.Y.. . . . . . C m (.(.(.(.(.(.^ e e e u (.(.(.(.(.(.(.g . . . . . H (.Z.. . . . . . . . . . . .   ",
"  . . . . . . . . . . . . K F.(.$ . . . . . C m (.(.(.(.(.(.(.%.7 K W (.(.(.(.(.(.(.g . . . . . [ (.w.. . . . . . . . . . . .   ",
"  . . . . . . . . . . . . Z h.(.g . . . . . C m (.(.(.(.(.(.(.k . C S (.(.(.(.(.(.(.g . . . . @ 6.(.h . . . . . . . . . . . .   ",
"  . . . . . . . . . . . . y +.(.p.. . . . . C m (.(.(.(.(.(.(.A.s.C.V.(.(.(.(.(.(.(.g . . . . w K.(.$ . . . . . . . . . . . .   ",
"  . . . . . . . . . . . . = L W./.% . . . . C m (.(.(.(.(.(.(.(.(.(.(.(.(.(.(.(.(.(.g . . . . } (.M.. . . . . . . . . . . . .   ",
"  . . . . . . . . . . . . . | r.(.q.. . . . C m (.(.(.(.(.(.(.(.(.(.(.(.(.(.(.(.l.^ $ . . . = B.(.f . . . . . . . . . . . . .   ",
"  . . . . . . . . . . . . . w T !./.< . . . C m (.(.(.(.(.(.(.(.(.(.(.(.(.(.(.(.j.@ . . . . +.(.K.. . . . . . . . . . . . . .   ",
"  . . . . . . . . . . . . . .  .1.(.A.. . . C m S S S S S S S S S S S S S S S D - . . . . 8 U.(.3 . . . . . . . . . . . . . .   ",
"  . . . . . . . . . . . . . . 7 L F.(.q.. . 7 b b b b b b b b b b b b b b b b = . . . . X n.(.y.. . . . . . . . . . . . . . .   ",
"  . . . . . . . . . . . . . . . Z Q T.(.v . . . . . . . . . . . . . . . . . . . . . . . z.(.K.o . . . . . . . . . . . . . . .   ",
"  . . . . . . . . . . . . . . . X  .( Q.(.9.. . . . . . . . . . . . . . . . . . . . . x.(.U.: . . . . . . . . . . . . . . . .   ",
"  . . . . . . . . . . . . . . . . @  .( W.(.f.% . . . . . . . . . . . . . . . . . 1 J.(.U.> . . . . . . . . . . . . . . . . .   ",
"  . . . . . . . . . . . . . . . . . @  .~ H.(.~.c o . . . . . . . . . . . . . o ;./.(.B.: . . . . . . . . . . . . . . . . . .   ",
"  . . . . . . . . . . . . . . . . . . O Z L r.^.(.R.9.< . . . . . . . . . 2 e.^.(.!.<.O . . . . . . . . . . . . . . . . . . .   ",
"  . . . . . . . . . . . . . . . . . . . . 9 X._ k./.(.(.E.d.q.8.c 8.w.m.W.(.(.!.h.i . . . . . . . . . . . . . . . . . . . . .   ",
"  . . . . . . . . . . . . . . . . . . . . . X y  .T >.N.~.(.(.(.(.(.(.(.Q.v.5.u X . . . . . . . . . . . . . . . . . . . . . .   ",
"  . . . . . . . . . . . . . . . . . . . . . . . . 5 V ..P ' @.$.$.$.=.Y n ; . . . . . . . . . . . . . . . . . . . . . . . . .   ",
"  . . . . . . . . . . . . . . . . . . . . . . . . . . . X & 4 5 4 & . . . . . . . . . . . . . . . . . . . . . . . . . . . . .   ",
"  . . . . . . . . . . . . . . . . . . . . . . . . . . . . . . . . . . . . . . . . . . . . . . . . . . . . . . . . . . . . . .   ",
"  . . . . . . . . . . . . . . . . . . . . . . . . . . . . . . . . . . . . . . . . . . . . . . . . . . . . . . . . . . . . . .   ",
"  . . . . . . . . . . . . . . . . . . . . . . . . . . . . . . . . . . . . . . . . . . . . . . . . . . . . . . . . . . . . . .   ",
"  . . . . . . . . . . . . . . . . . . . . . . . . . . . . . . . . . . . . . . . . . . . . . . . . . . . . . . . . . . . . . .   ",
"  . . . . . . . . . . . . . . . . . . . . . . . . . . . . . . . . . . . . . . . . . . . . . . . . . . . . . . . . . . . . .     ",
"  . . . . . . . . . . . . . . . . . . . . . . . . . . . . . . . . . . . . . . . . . . . . . . . . . . . . . . . . . . . . .     ",
"    . . . . . . . . . . . . . . . . . . . . . . . . . . . . . . . . . . . . . . . . . . . . . . . . . . . . . . . . . . . .     ",
"    . . . . . . . . . . . . . . . . . . . . . . . . . . . . . . . . . . . . . . . . . . . . . . . . . . . . . . . . . . .       ",
"      . . . . . . . . . . . . . . . . . . . . . . . . . . . . . . . . . . . . . . . . . . . . . . . . . . . . . . . . .         ",
"        . . . . . . . . . . . . . . . . . . . . . . . . . . . . . . . . . . . . . . . . . . . . . . . . . . . . . . .           ",
"                . . . . . . . . . . . . . . . . . . . . . . . . . . . . . . . . . . . . . . . . . . . . . . . .                 ",
"                                                                                                                                "
};
